# Blender v2.79 (sub 0) OBJ File: ''
# www.blender.org
mtllib meteor_3.mtl
o Asteroid_Mob_01
v -0.694166 0.061282 -1.325190
v -0.872912 0.949731 -0.489387
v -0.575090 0.786273 -0.953670
v 0.711610 1.452602 0.319405
v 1.087480 0.480212 0.507441
v -0.198825 0.224053 -0.973896
v -1.113070 -0.760465 -0.430249
v -1.373593 -0.987853 0.231264
v 0.117076 1.114818 0.569467
v -0.435459 -0.782290 -1.254544
v -0.821373 -0.309380 -1.077364
v 1.177376 -0.245197 0.667744
v 1.518158 0.418680 -0.271603
v 1.024076 1.029659 -0.022957
v 1.004531 -0.699633 -0.074542
v 0.800968 -1.254725 -0.110649
v 0.682431 0.196815 1.295094
v -1.284743 -0.565522 0.410961
v 0.521499 -0.659714 -1.407677
v -0.140187 -1.002800 -0.985519
v -0.495877 1.363155 0.184740
v -0.153063 1.335043 0.571167
v -0.018304 -1.309328 0.480751
v 0.487481 -1.467482 0.447788
v -1.421462 -0.046983 0.249104
v 0.561025 -0.897308 -0.860944
v 1.507395 -0.144701 0.108329
v 1.110552 -0.356660 -0.582178
v -0.798326 1.271685 -0.138466
v 0.394503 1.459412 -0.293878
v 0.508849 1.014272 -0.126014
v -1.067529 -0.634583 0.973582
v -0.611793 -0.107953 1.281279
v -1.178961 -0.048365 -0.328232
v -0.915758 0.580175 -0.479745
v -1.319068 0.584760 -0.303122
v -0.284166 0.484588 1.441034
v -0.503049 0.828580 0.970672
v -0.703841 0.444332 1.085080
v -1.036928 1.139961 0.293261
v -0.483351 -0.899446 0.861806
v 0.443512 0.811917 1.052240
v 0.293093 0.482248 -1.388342
v -0.120176 0.925821 -0.966380
v 1.091346 -0.184756 -1.150201
v -0.781547 -1.003300 -0.377443
v -1.197253 0.428439 0.836062
v -0.399161 -0.071713 1.017391
v 0.418586 -0.293634 1.038225
v -0.078508 -0.653544 0.792305
v 0.565377 -0.809149 0.954012
v 1.085087 -0.579669 0.511728
v 1.099000 0.587629 -0.590893
v 0.993593 0.496605 -1.181346
v -0.116804 -1.435878 -0.504099
v 0.509410 -0.659468 -0.625994
v 0.388398 0.952842 -0.749497
v 0.851297 -0.431889 1.175358
v 0.170364 -0.185377 1.445000
v -0.083336 -0.092036 -1.395571
v 1.042826 0.407538 0.891488
v -1.261368 0.538480 0.305928
v 0.592731 0.684464 -0.371089
v -0.622352 -1.016042 0.573187
v -0.697763 -0.827797 -0.184161
v -0.097831 -1.013850 -0.179944
vt 0.522833 0.427987
vt 0.431096 0.439371
vt 0.485993 0.398459
vt 0.917474 0.520801
vt 0.972857 0.494716
vt 0.970419 0.535865
vt 0.745267 0.537724
vt 0.665470 0.563321
vt 0.594490 0.539750
vt 0.762122 0.443709
vt 0.709151 0.409327
vt 0.735833 0.381115
vt 0.118493 0.565841
vt 0.126927 0.513285
vt 0.245396 0.571720
vt 0.334843 0.094049
vt 0.295783 0.040764
vt 0.381307 0.020028
vt 0.789805 0.975485
vt 0.730580 0.926992
vt 0.794773 0.929490
vt 0.315110 0.302948
vt 0.286716 0.271323
vt 0.324080 0.254170
vt 0.235536 0.282938
vt 0.233268 0.352721
vt 0.199561 0.309248
vt 0.315219 0.655335
vt 0.413855 0.628399
vt 0.469975 0.676503
vt 0.095798 0.261851
vt 0.675086 0.367877
vt 0.345979 0.198095
vt 0.253353 0.138360
vt 0.130665 0.354749
vt 0.101405 0.097340
vt 0.085339 0.022958
vt 0.162159 0.044108
vt 0.116369 0.180449
vt 0.209163 0.091826
vt 0.672299 0.474342
vt 0.608805 0.454892
vt 0.471886 0.336632
vt 0.363529 0.413195
vt 0.373207 0.266283
vt 0.519365 0.627920
vt 0.546920 0.557842
vt 0.573279 0.619453
vt 0.833123 0.798930
vt 0.784170 0.733008
vt 0.889470 0.760848
vt 0.450419 0.858365
vt 0.500351 0.865640
vt 0.440413 0.904052
vt 0.187012 0.896378
vt 0.230500 0.895574
vt 0.202164 0.964418
vt 0.240577 0.219487
vt 0.186089 0.203473
vt 0.269806 0.698446
vt 0.230545 0.722388
vt 0.258435 0.635136
vt 0.406205 0.467398
vt 0.479750 0.489294
vt 0.404203 0.552767
vt 0.594618 0.851589
vt 0.657616 0.894012
vt 0.565326 0.868815
vt 0.974050 0.097998
vt 0.944660 0.137498
vt 0.909435 0.068818
vt 0.474163 0.768987
vt 0.514948 0.819158
vt 0.462075 0.830944
vt 0.278515 0.968145
vt 0.839991 0.911228
vt 0.871494 0.933503
vt 0.020187 0.142440
vt 0.042777 0.055174
vt 0.943127 0.581838
vt 0.585373 0.138750
vt 0.548330 0.028128
vt 0.603972 0.074307
vt 0.827528 0.621442
vt 0.816017 0.593808
vt 0.900363 0.653387
vt 0.176985 0.424238
vt 0.115070 0.413830
vt 0.347635 0.741392
vt 0.340989 0.812708
vt 0.298072 0.800092
vt 0.570561 0.467679
vt 0.446745 0.254967
vt 0.037438 0.893761
vt 0.091143 0.851517
vt 0.098498 0.917960
vt 0.822145 0.269934
vt 0.872183 0.219795
vt 0.853918 0.298962
vt 0.906072 0.285281
vt 0.108935 0.608478
vt 0.057975 0.671323
vt 0.012834 0.605763
vt 0.953364 0.033850
vt 0.713952 0.305708
vt 0.782496 0.240479
vt 0.803638 0.334829
vt 0.267037 0.410847
vt 0.025738 0.348009
vt 0.689242 0.219795
vt 0.736200 0.233906
vt 0.571113 0.914812
vt 0.536451 0.870054
vt 0.723731 0.585236
vt 0.538341 0.322987
vt 0.623574 0.355510
vt 0.558177 0.378719
vt 0.864712 0.702832
vt 0.555108 0.820313
vt 0.560513 0.754131
vt 0.644463 0.831858
vt 0.540135 0.658841
vt 0.497376 0.136699
vt 0.438576 0.094389
vt 0.899250 0.828496
vt 0.821450 0.886513
vt 0.839564 0.830082
vt 0.132340 0.848413
vt 0.156852 0.917973
vt 0.610166 0.595530
vt 0.222796 0.492812
vt 0.688875 0.617259
vt 0.749162 0.671218
vt 0.683093 0.697113
vt 0.491164 0.212491
vt 0.541918 0.183985
vt 0.577675 0.198404
vt 0.298112 0.519621
vt 0.398777 0.765513
vt 0.845857 0.543608
vt 0.799884 0.567979
vt 0.810504 0.481607
vt 0.852688 0.474349
vt 0.920778 0.152378
vt 0.955352 0.189355
vt 0.880896 0.201246
vt 0.855437 0.169867
vt 0.397669 0.175019
vt 0.813791 0.379279
vt 0.856012 0.447715
vt 0.647056 0.207628
vt 0.646022 0.281115
vt 0.578037 0.262823
vt 0.085864 0.751036
vt 0.074919 0.827443
vt 0.025053 0.793775
vt 0.325940 0.596218
vt 0.172040 0.660672
vt 0.158513 0.743888
vt 0.102480 0.710546
vt 0.942804 0.743337
vt 0.918233 0.704250
vt 0.970958 0.713215
vt 0.613691 0.426514
vt 0.864682 0.675169
vt 0.339691 0.599188
vt 0.908225 0.460798
vt 0.599679 0.654358
vt 0.094494 0.401328
vt 0.682909 0.360783
vt 0.741621 0.360783
vt 0.199762 0.628266
vt 0.367583 0.719048
vt 0.797525 0.798814
vt 0.355471 0.867107
vt 0.480575 0.021641
vt 0.480769 0.456675
vt 0.501179 0.548861
vt 0.329342 0.362230
vt 0.177364 0.460372
vt 0.746530 0.866003
vt 0.021031 0.562128
vt 0.865452 0.114831
vt 0.807270 0.081698
vt 0.868217 0.034973
vt 0.522515 0.288099
vt 0.861789 0.349541
vt 0.722476 0.820613
vt 0.713252 0.754781
vt 0.695996 0.102427
vt 0.628403 0.734077
vt 0.209922 0.827986
vt 0.147773 0.748691
vt 0.341532 0.444064
vt 0.970958 0.658301
vn -0.4069 0.2375 -0.8820
vn -0.6615 0.5273 -0.5333
vn -0.3183 0.5115 -0.7981
vn -0.1750 0.4534 -0.8740
vn 0.9445 0.2871 -0.1595
vn 0.5709 0.6828 -0.4560
vn 0.4428 0.8485 0.2896
vn -0.3578 -0.5194 -0.7760
vn -0.7892 -0.2032 -0.5796
vn -0.2226 0.9682 0.1139
vn 0.0016 0.8016 0.5979
vn 0.3295 0.8347 -0.4412
vn 0.3216 -0.4846 -0.8135
vn 0.6355 -0.7135 -0.2951
vn 0.1007 -0.7692 -0.6310
vn 0.6015 0.2163 -0.7690
vn -0.6248 0.3939 -0.6742
vn -0.8740 0.3077 -0.3761
vn -0.2161 0.3779 0.9003
vn -0.2883 0.6730 0.6811
vn -0.5429 0.2995 0.7846
vn -0.0714 -0.5993 0.7973
vn -0.4006 -0.8756 0.2700
vn 0.2830 -0.8861 0.3671
vn -0.5639 -0.4042 0.7202
vn -0.0919 0.4137 -0.9058
vn 0.7628 -0.2184 -0.6087
vn -0.7516 0.2712 0.6013
vn 0.9667 -0.2248 0.1224
vn 0.7954 -0.5317 0.2911
vn 0.8013 -0.5279 -0.2814
vn 0.7638 -0.6035 -0.2288
vn 0.8316 0.3837 0.4014
vn 0.2888 0.6582 0.6952
vn -0.1328 0.6082 -0.7826
vn -0.4952 0.8246 -0.2736
vn 0.8710 -0.4879 0.0577
vn 0.7207 -0.6467 -0.2498
vn -0.2404 -0.9527 -0.1858
vn -0.3376 -0.7191 0.6074
vn 0.4661 -0.4344 0.7708
vn -0.0507 -0.5965 0.8010
vn -0.8163 -0.3935 -0.4229
vn -0.9237 -0.1535 -0.3509
vn 0.6316 0.4437 -0.6358
vn 0.5745 0.7083 -0.4102
vn 0.4676 0.2016 0.8606
vn 0.7978 0.4109 0.4412
vn 0.2699 -0.7913 0.5486
vn -0.2994 -0.2745 0.9138
vn 0.1946 -0.5082 0.8390
vn 0.4543 0.8511 -0.2632
vn 0.4852 0.7456 -0.4568
vn 0.8795 -0.1454 0.4532
vn -0.2571 -0.9388 0.2293
vn -0.8214 -0.5701 0.0148
vn -0.3227 -0.9461 0.0281
vn -0.6715 0.7074 0.2208
vn -0.9426 0.3008 0.1452
vn 0.0894 0.6054 0.7909
vn 0.3846 -0.9084 0.1641
vn -0.6957 -0.6695 0.2603
vn -0.1816 0.1979 -0.9632
vn -0.9955 -0.0942 -0.0074
vn -0.9927 -0.0342 0.1157
vn -0.0446 -0.0137 0.9989
usemtl Asteroid_01
s 1
f 1/1/1 2/2/2 3/3/3
f 6/4/4 1/5/1 3/6/3
f 13/7/5 14/8/6 4/9/7
f 10/10/8 11/11/9 1/12/1
f 21/13/10 22/14/11 30/15/12
f 19/16/13 26/17/14 20/18/15
f 30/19/12 14/20/6 31/21/16
f 2/22/2 35/23/17 36/24/18
f 37/25/19 38/26/20 39/27/21
f 41/28/22 23/29/23 24/30/24
f 39/27/21 32/31/25 37/25/19
f 1/12/1 11/11/9 36/32/18
f 19/16/13 43/33/26 45/34/27
f 47/35/28 32/31/25 39/27/21
f 27/36/29 52/37/30 15/38/31
f 13/39/5 27/36/29 28/40/32
f 5/41/33 4/9/7 42/42/34
f 44/43/35 29/44/36 30/45/12
f 56/46/37 15/47/31 16/48/38
f 24/49/24 55/50/39 16/51/38
f 49/52/40 58/53/41 59/54/42
f 7/55/43 34/56/44 11/57/9
f 45/34/27 54/58/45 53/59/46
f 28/60/32 15/61/31 56/62/37
f 17/63/47 61/64/48 42/65/34
f 48/66/49 59/67/42 33/68/50
f 6/69/4 44/70/35 43/71/26
f 51/72/51 58/73/41 49/74/40
f 36/75/18 11/57/9 34/56/44
f 63/76/52 57/77/53 31/21/16
f 5/78/33 12/79/54 27/36/29
f 54/58/45 45/34/27 43/33/26
f 3/6/3 44/80/35 6/4/4
f 55/81/39 10/82/8 20/83/15
f 64/84/55 8/85/56 46/86/57
f 4/9/7 5/41/33 13/7/5
f 40/87/58 62/88/59 47/35/28
f 41/89/22 48/90/49 33/91/50
f 9/92/60 42/42/34 4/9/7
f 57/93/53 44/43/35 30/45/12
f 64/94/55 65/95/61 66/96/62
f 31/97/16 14/98/6 63/99/52
f 53/100/46 63/99/52 14/98/6
f 58/101/41 17/102/47 59/103/42
f 6/69/4 43/71/26 60/104/63
f 38/26/20 47/35/28 39/27/21
f 32/105/25 8/106/56 64/107/55
f 22/108/11 40/87/58 38/26/20
f 32/31/25 47/35/28 25/109/64
f 25/110/64 18/111/65 32/105/25
f 33/68/50 37/112/19 32/113/25
f 27/36/29 15/38/31 28/40/32
f 13/7/5 53/114/46 14/8/6
f 30/19/12 31/21/16 57/77/53
f 2/115/2 40/116/58 29/117/36
f 16/51/38 55/50/39 26/118/14
f 58/119/41 51/120/51 52/121/30
f 16/48/38 26/122/14 56/46/37
f 55/81/39 46/123/57 7/124/43
f 7/124/43 10/82/8 55/81/39
f 55/125/39 23/126/23 66/127/62
f 66/96/62 46/128/57 55/129/39
f 3/3/3 29/44/36 44/43/35
f 14/8/6 30/130/12 4/9/7
f 4/131/7 30/15/12 22/14/11
f 28/40/32 45/34/27 13/39/5
f 57/132/53 53/133/46 54/134/45
f 28/135/32 56/136/37 26/137/14
f 26/17/14 45/34/27 28/40/32
f 42/65/34 37/138/19 17/63/47
f 49/74/40 50/139/66 51/72/51
f 47/35/28 38/26/20 40/87/58
f 18/111/65 8/106/56 32/105/25
f 8/140/56 18/141/65 7/142/43
f 46/143/57 8/140/56 7/142/43
f 34/144/44 7/145/43 18/146/65
f 25/147/64 34/144/44 18/146/65
f 19/16/13 60/148/63 43/33/26
f 45/34/27 26/17/14 19/16/13
f 60/149/63 19/150/13 10/10/8
f 25/151/64 62/152/59 36/153/18
f 36/154/18 34/155/44 25/156/64
f 40/116/58 36/153/18 62/152/59
f 38/157/20 37/138/19 42/65/34
f 12/158/54 5/159/33 61/160/48
f 22/161/11 38/162/20 9/163/60
f 29/117/36 40/116/58 21/164/10
f 64/84/55 46/86/57 65/165/61
f 41/28/22 64/166/55 23/29/23
f 2/115/2 36/153/18 40/116/58
f 6/4/4 60/167/63 1/5/1
f 57/132/53 54/134/45 43/168/26
f 62/169/59 25/109/64 47/35/28
f 48/90/49 41/89/22 50/139/66
f 50/139/66 49/74/40 48/90/49
f 33/170/50 32/105/25 41/171/22
f 12/158/54 58/101/41 52/172/30
f 45/34/27 53/59/46 13/39/5
f 2/2/2 29/44/36 3/3/3
f 24/30/24 51/173/51 41/28/22
f 55/50/39 24/49/24 23/174/23
f 61/160/48 58/101/41 12/158/54
f 49/52/40 59/54/42 48/175/49
f 10/82/8 7/124/43 11/176/9
f 35/177/17 2/2/2 1/1/1
f 42/65/34 61/64/48 5/178/33
f 41/171/22 32/105/25 64/107/55
f 29/44/36 21/179/10 30/45/12
f 4/131/7 22/14/11 9/180/60
f 66/127/62 23/126/23 64/181/55
f 40/182/58 22/14/11 21/13/10
f 13/39/5 5/78/33 27/36/29
f 17/102/47 58/101/41 61/160/48
f 20/183/15 10/184/8 19/185/13
f 60/149/63 10/10/8 1/12/1
f 43/186/26 44/43/35 57/93/53
f 52/37/30 27/36/29 12/79/54
f 53/100/46 57/187/53 63/99/52
f 15/188/31 52/121/30 16/189/38
f 55/81/39 20/83/15 26/190/14
f 51/120/51 24/191/24 52/121/30
f 24/191/24 16/189/38 52/121/30
f 46/128/57 66/96/62 65/95/61
f 1/192/1 36/154/18 35/193/17
f 59/194/42 17/63/47 37/138/19
f 37/112/19 33/68/50 59/67/42
f 50/139/66 41/89/22 51/72/51
f 38/162/20 42/195/34 9/163/60
