# Blender v2.79 (sub 0) OBJ File: ''
# www.blender.org
mtllib meteor_2.mtl
o Cube.003
v -0.753412 -0.341761 0.608543
v -1.072629 -0.081203 0.340599
v -0.665150 -0.518050 0.036971
v -0.664212 -0.208889 -0.143662
v -0.970343 0.701308 0.190662
v -0.468317 0.731644 0.483368
v -1.048243 0.241822 0.607273
v -0.461803 0.195939 0.738049
v -0.821824 0.057844 -0.515065
v -0.487967 -0.269740 -0.523691
v -0.911803 0.224630 -0.241536
v -0.490898 0.304899 -0.734773
v -0.576813 0.564517 -0.210126
v -0.669617 -0.373156 -0.278390
v -0.468740 -0.542938 -0.471423
v -0.462060 -0.147141 -0.795316
v -0.137296 -0.203951 -0.852352
v -0.181775 -0.675576 -0.493066
v 0.171891 -0.427566 -0.922465
v 0.052729 -0.717221 -0.583427
v -0.155366 0.406805 -0.613202
v -0.081654 0.750254 -0.622601
v -0.548241 0.668732 -0.459227
v 0.511394 0.024017 -0.780675
v 0.315242 0.402886 -0.726497
v 0.436757 -0.587037 -0.665077
v 0.469574 -0.592779 -0.422307
v 0.723079 0.144347 -0.228273
v 0.914098 0.001413 -0.139708
v 0.976745 -0.508691 0.136982
v 0.422152 -0.996392 -0.147686
v 0.702900 0.760837 -0.064764
v 0.851168 0.451717 -0.050568
v 0.461513 0.229451 -0.359691
v 0.533867 0.855805 -0.480708
v 0.741162 0.090294 0.534130
v 0.629551 0.410471 0.436302
v 0.484661 0.669161 0.427948
v 0.617449 -0.938056 0.396703
v 0.860166 -0.389280 0.525337
v 0.243766 0.124932 1.028818
v -0.188731 0.103307 0.779346
v 0.630072 -0.273970 0.801199
v -0.284019 -0.238779 0.760758
v 0.390946 -0.339982 0.836665
v 0.315363 -0.647750 0.642718
v -0.078516 -0.608366 0.520236
v 0.035794 0.708287 0.666834
v -0.182020 0.504631 0.608745
v 0.179575 0.486517 0.704663
v 0.032156 -0.857207 -0.244979
v -0.253678 -0.861765 -0.289842
v -0.489567 -0.812329 -0.186060
v -0.428526 -0.752958 0.159991
v 0.076581 -0.851079 0.194799
v -0.380787 -0.577769 0.261556
v 0.013294 0.934601 -0.404613
v 0.064102 1.104372 -0.059399
v 0.575444 0.951812 0.098609
v 0.111572 0.860816 0.298924
v -0.162392 0.767544 0.239642
vt 0.278234 0.606151
vt 0.350189 0.643609
vt 0.255263 0.711070
vt 0.307429 0.748177
vt 0.407074 0.709707
vt 0.125608 0.805193
vt 0.222139 0.750534
vt 0.235249 0.850433
vt 0.117601 0.597345
vt 0.207385 0.548185
vt 0.182713 0.635563
vt 0.208159 0.429585
vt 0.091775 0.373267
vt 0.146832 0.375613
vt 0.300903 0.583363
vt 0.297094 0.517042
vt 0.338628 0.531248
vt 0.320172 0.432709
vt 0.279397 0.463485
vt 0.376686 0.494480
vt 0.363617 0.411427
vt 0.398785 0.462630
vt 0.240349 0.371749
vt 0.222783 0.321250
vt 0.372231 0.351775
vt 0.409567 0.403068
vt 0.449278 0.258750
vt 0.491398 0.276722
vt 0.448410 0.408507
vt 0.545416 0.347818
vt 0.501018 0.450777
vt 0.369686 0.264891
vt 0.333582 0.141261
vt 0.387816 0.164694
vt 0.264537 0.239580
vt 0.274781 0.165211
vt 0.309910 0.315199
vt 0.622703 0.208451
vt 0.524526 0.197135
vt 0.602522 0.154900
vt 0.219660 0.153433
vt 0.287773 0.080812
vt 0.207790 0.090579
vt 0.593132 0.424964
vt 0.617827 0.327250
vt 0.583079 0.236773
vt 0.703728 0.319692
vt 0.765563 0.349498
vt 0.811883 0.268013
vt 0.907136 0.257668
vt 0.863221 0.383020
vt 0.871283 0.118538
vt 0.924779 0.148375
vt 0.823753 0.163069
vt 0.772957 0.077099
vt 0.646359 0.111995
vt 0.593593 0.099032
vt 0.951246 0.207619
vt 0.919946 0.067167
vt 0.355780 0.852205
vt 0.282071 0.920180
vt 0.448867 0.793481
vt 0.446515 0.499376
vt 0.420570 0.531624
vt 0.515312 0.553184
vt 0.389803 0.570933
vt 0.686480 0.455033
vt 0.618535 0.531831
vt 0.432275 0.626896
vt 0.415691 0.659451
vt 0.706434 0.540053
vt 0.676880 0.602553
vt 0.192025 0.281013
vt 0.171941 0.236949
vt 0.122195 0.159922
vt 0.065887 0.211559
vt 0.955573 0.073742
vt 0.149944 0.718906
vt 0.079418 0.657428
vt 0.849758 0.040826
vt 0.203508 0.484343
vt 0.696955 0.237145
vt 0.716243 0.370968
vt 0.732124 0.422951
vt 0.746028 0.504591
vt 0.671353 0.406268
vt 0.133245 0.875096
vt 0.452920 0.653141
vt 0.047238 0.817518
vn -0.9350 -0.3494 -0.0616
vn -0.8205 -0.5714 -0.0173
vn -0.9343 -0.3562 0.0093
vn -0.4893 -0.5910 0.6413
vn -0.4053 -0.7456 0.5290
vn -0.0711 0.8654 0.4959
vn -0.7447 0.1632 0.6472
vn -0.1549 0.1954 0.9684
vn -0.6358 0.7325 -0.2432
vn -0.8588 -0.0411 -0.5107
vn -0.8761 0.1419 -0.4607
vn -0.3268 0.3029 -0.8952
vn -0.7868 0.5318 -0.3133
vn -0.8824 -0.4005 -0.2470
vn -0.6358 -0.4688 -0.6132
vn -0.6196 -0.4533 -0.6408
vn -0.2753 -0.0850 -0.9576
vn -0.3874 -0.3773 -0.8412
vn -0.3799 -0.5991 -0.7048
vn 0.0399 -0.3225 -0.9457
vn -0.0606 -0.8197 -0.5695
vn 0.0488 0.1081 -0.9929
vn -0.1356 0.5275 -0.8387
vn 0.6693 0.1902 -0.7182
vn 0.6094 -0.6200 -0.4942
vn 0.6067 0.2983 -0.7368
vn 0.9132 0.1060 -0.3934
vn 0.6580 -0.6492 -0.3815
vn 0.9565 -0.2759 -0.0951
vn 0.2016 -0.9042 -0.3766
vn 0.7680 0.3413 -0.5419
vn 0.9553 0.2530 -0.1531
vn 0.5855 0.5624 -0.5839
vn 0.8235 0.5672 -0.0020
vn 0.3993 0.2632 -0.8782
vn 0.8083 0.3214 0.4933
vn 0.6968 0.3994 0.5958
vn 0.5694 0.8083 0.1496
vn 0.5007 0.5469 0.6709
vn 0.3484 -0.8516 0.3917
vn 0.8627 -0.1167 0.4920
vn 0.5684 -0.1441 0.8100
vn 0.0144 -0.4410 0.8974
vn 0.0344 0.1930 0.9806
vn -0.2166 0.1488 0.9649
vn -0.1819 -0.2971 0.9374
vn -0.1477 0.6136 0.7757
vn -0.1892 0.4959 0.8476
vn 0.1828 0.4545 0.8718
vn -0.3837 0.8719 0.3042
vn -0.2829 -0.7524 0.5949
vn 0.0070 -0.9646 -0.2635
vn -0.2339 -0.9130 -0.3342
vn -0.2678 -0.9084 0.3212
vn -0.5979 -0.7814 -0.1787
vn -0.1442 -0.6363 0.7579
vn -0.4513 -0.6926 0.5627
vn -0.1448 0.8522 -0.5028
vn -0.1506 0.9849 0.0853
vn -0.0764 0.8569 0.5098
vn -0.6382 0.7673 -0.0624
usemtl Material.003
s 1
f 4/1/1 3/2/2 2/3/3
f 2/3/3 3/2/2 1/4/4
f 1/4/4 3/2/2 56/5/5
f 6/6/6 7/7/7 8/8/8
f 13/9/9 9/10/10 11/11/11
f 12/12/12 13/13/9 23/14/13
f 11/11/11 14/15/14 4/1/1
f 10/16/15 14/15/14 9/10/10
f 14/15/14 10/16/15 15/17/16
f 17/18/17 10/16/15 16/19/18
f 18/20/19 17/18/17 19/21/20
f 18/20/19 19/21/20 20/22/21
f 21/23/22 17/18/17 16/19/18
f 22/24/23 12/12/12 23/14/13
f 24/25/24 19/21/20 17/18/17
f 26/26/25 28/27/26 29/28/27
f 28/27/26 26/26/25 24/25/24
f 27/29/28 30/30/29 31/31/30
f 34/32/31 33/33/32 28/34/26
f 35/35/33 32/36/34 33/33/32
f 34/32/31 35/35/33 33/33/32
f 34/32/31 25/37/35 35/35/33
f 34/32/31 28/27/26 24/25/24
f 36/38/36 29/28/27 33/39/32
f 37/40/37 36/38/36 33/39/32
f 32/36/34 59/41/38 37/42/37
f 37/42/37 59/41/38 38/43/39
f 39/44/40 30/30/29 40/45/41
f 30/30/29 29/28/27 36/38/36
f 30/30/29 36/46/36 40/45/41
f 39/44/40 40/45/41 43/47/42
f 45/48/43 41/49/44 42/50/45
f 43/47/42 41/49/44 45/48/43
f 44/51/46 45/48/43 42/50/45
f 48/52/47 49/53/48 50/54/49
f 42/50/45 41/49/44 50/54/49
f 48/52/47 50/54/49 38/55/39
f 50/56/49 36/38/36 37/40/37
f 50/56/49 37/40/37 38/57/39
f 8/58/8 42/50/45 49/53/48
f 61/59/50 49/53/48 48/52/47
f 44/60/46 42/61/45 8/8/8
f 1/4/4 47/62/51 44/60/46
f 8/8/8 1/4/4 44/60/46
f 20/22/21 51/63/52 52/64/53
f 52/64/53 18/20/19 20/22/21
f 55/65/54 52/64/53 51/63/52
f 18/20/19 52/64/53 53/66/55
f 18/20/19 53/66/55 15/17/16
f 30/30/29 39/44/40 31/31/30
f 27/29/28 31/31/30 51/63/52
f 26/26/25 27/29/28 51/63/52
f 26/26/25 51/63/52 20/22/21
f 46/67/56 55/68/54 39/44/40
f 31/31/30 39/44/40 55/68/54
f 54/69/57 3/2/2 53/66/55
f 56/5/5 3/2/2 54/70/57
f 55/68/54 47/71/51 56/72/5
f 35/35/33 22/24/23 57/73/58
f 58/74/59 35/35/33 57/73/58
f 25/37/35 22/24/23 35/35/33
f 59/41/38 58/74/59 60/75/60
f 60/75/60 58/74/59 61/76/50
f 61/59/50 6/77/6 49/53/48
f 5/78/61 6/6/6 13/79/9
f 38/55/39 60/80/60 48/52/47
f 1/4/4 7/7/7 2/3/3
f 1/4/4 56/5/5 47/62/51
f 2/3/3 5/78/61 11/11/11
f 7/7/7 6/6/6 5/78/61
f 7/7/7 5/78/61 2/3/3
f 8/8/8 7/7/7 1/4/4
f 16/19/18 10/16/15 9/81/10
f 12/12/12 9/81/10 13/13/9
f 5/78/61 13/79/9 11/11/11
f 4/1/1 2/3/3 11/11/11
f 3/2/2 4/1/1 14/15/14
f 11/11/11 9/10/10 14/15/14
f 14/15/14 15/17/16 3/2/2
f 15/17/16 10/16/15 17/18/17
f 17/18/17 18/20/19 15/17/16
f 12/12/12 21/23/22 16/19/18
f 22/24/23 21/23/22 12/12/12
f 12/12/12 16/19/18 9/81/10
f 25/37/35 24/25/24 17/18/17
f 34/32/31 24/25/24 25/37/35
f 25/37/35 17/18/17 21/23/22
f 25/37/35 21/23/22 22/24/23
f 19/21/20 26/26/25 20/22/21
f 19/21/20 24/25/24 26/26/25
f 29/28/27 27/29/28 26/26/25
f 29/28/27 30/30/29 27/29/28
f 29/28/27 28/27/26 33/39/32
f 37/42/37 33/33/32 32/36/34
f 36/82/36 43/47/42 40/45/41
f 43/47/42 45/83/43 39/44/40
f 47/71/51 45/84/43 44/85/46
f 47/71/51 46/67/56 45/84/43
f 39/44/40 45/83/43 46/86/56
f 50/54/49 41/49/44 36/82/36
f 36/82/36 41/49/44 43/47/42
f 49/53/48 42/50/45 50/54/49
f 6/6/6 8/8/8 49/87/48
f 53/66/55 52/64/53 54/69/57
f 3/2/2 15/17/16 53/66/55
f 55/65/54 51/63/52 31/31/30
f 46/67/56 47/71/51 55/68/54
f 55/65/54 54/69/57 52/64/53
f 55/65/54 56/88/5 54/69/57
f 58/74/59 32/36/34 35/35/33
f 59/41/38 32/36/34 58/74/59
f 13/13/9 61/76/50 58/74/59
f 23/14/13 13/13/9 58/74/59
f 58/74/59 57/73/58 23/14/13
f 23/14/13 57/73/58 22/24/23
f 6/6/6 61/89/50 13/79/9
f 38/43/39 59/41/38 60/75/60
f 60/80/60 61/59/50 48/52/47
